<svg width="48" height="48" viewBox="0 0 48 48" fill="none" xmlns="http://www.w3.org/2000/svg">
<path d="M0 10C0 4.47715 4.47715 0 10 0H38C43.5229 0 48 4.47715 48 10V38C48 43.5229 43.5228 48 38 48H10C4.47715 48 0 43.5228 0 38V10Z" fill="#ECFDF5"/>
<path d="M30.4167 15H17.5833C15.0561 15 13 17.0187 13 19.5V28.5C13 30.9813 15.0561 33 17.5833 33H30.4167C32.9439 33 35 30.9813 35 28.5V19.5C35 17.0187 32.9439 15 30.4167 15ZM33.1667 19.5V23.1H19.4167V16.8H30.4167C31.9328 16.8 33.1667 18.0114 33.1667 19.5ZM14.8333 28.5V19.5C14.8333 18.0114 16.0672 16.8 17.5833 16.8V31.2C16.0672 31.2 14.8333 29.9886 14.8333 28.5ZM30.4167 31.2H19.4167V24.9H33.1667V28.5C33.1667 29.9886 31.9328 31.2 30.4167 31.2Z" fill="#059669"/>
</svg>
